<svg xmlns="http://www.w3.org/2000/svg" viewBox="0 0 64 64" role="img" aria-labelledby="title">
  <title>Tanuki Favicon</title>
  <defs>
    <linearGradient id="bg" x1="10" y1="8" x2="54" y2="56" gradientUnits="userSpaceOnUse">
      <stop offset="0" stop-color="#1f2937" />
      <stop offset="1" stop-color="#111827" />
    </linearGradient>
    <linearGradient id="fur" x1="18" y1="16" x2="46" y2="48" gradientUnits="userSpaceOnUse">
      <stop offset="0" stop-color="#d7c3a5" />
      <stop offset="1" stop-color="#b08968" />
    </linearGradient>
  </defs>

  <rect x="4" y="4" width="56" height="56" rx="16" fill="url(#bg)" />

  <path d="M20 24L14 14L26 18Z" fill="#2f3b4d" />
  <path d="M44 24L50 14L38 18Z" fill="#2f3b4d" />
  <path d="M22 18L18 14L25 16Z" fill="#f3e7d3" opacity="0.95" />
  <path d="M42 18L46 14L39 16Z" fill="#f3e7d3" opacity="0.95" />

  <ellipse cx="32" cy="34" rx="18" ry="16" fill="url(#fur)" />
  <path d="M16 33C20 24 44 24 48 33C44 30 40 29 32 29C24 29 20 30 16 33Z" fill="#3c4758" />
  <path d="M17 35C22 28 42 28 47 35C42 44 22 44 17 35Z" fill="#2b3442" />

  <ellipse cx="25" cy="35" rx="6" ry="8" fill="#f6efe3" />
  <ellipse cx="39" cy="35" rx="6" ry="8" fill="#f6efe3" />
  <ellipse cx="25" cy="35" rx="2.2" ry="2.8" fill="#0f172a" />
  <ellipse cx="39" cy="35" rx="2.2" ry="2.8" fill="#0f172a" />
  <circle cx="24.2" cy="34.2" r="0.8" fill="#ffffff" />
  <circle cx="38.2" cy="34.2" r="0.8" fill="#ffffff" />

  <path d="M32 37L28 43H36Z" fill="#f7d7bf" />
  <path d="M25 45C27.5 47.5 36.5 47.5 39 45" fill="none" stroke="#0f172a" stroke-width="2.2" stroke-linecap="round" />
</svg>
